<?xml version="1.0" ?><svg enable-background="new 0 0 32 32" version="1.1" viewBox="0 0 32 32" xml:space="preserve" xmlns="http://www.w3.org/2000/svg" xmlns:xlink="http://www.w3.org/1999/xlink"><g id="Layer_1"/><g id="Capa_2"><g><path d="M23.14,5.911l0.564,0.063l0.062,0.564c0.017,0.156,0.149,0.274,0.306,0.274s0.289-0.118,0.306-0.274l0.062-0.565    l0.564-0.063c0.156-0.017,0.274-0.149,0.274-0.306s-0.118-0.289-0.274-0.306l-0.564-0.063l-0.062-0.564    c-0.017-0.156-0.149-0.274-0.306-0.274s-0.289,0.118-0.306,0.274l-0.062,0.564L23.14,5.299c-0.156,0.017-0.274,0.149-0.274,0.306    S22.984,5.894,23.14,5.911z"/><path d="M11.596,1.425l0.543,0.06l0.06,0.543c0.017,0.156,0.149,0.274,0.306,0.274c0.157,0,0.289-0.118,0.306-0.274l0.06-0.542    l0.543-0.06c0.156-0.017,0.274-0.149,0.274-0.306c0-0.157-0.118-0.289-0.274-0.306l-0.543-0.06l-0.06-0.543    c-0.017-0.156-0.149-0.274-0.306-0.274c-0.157,0-0.289,0.118-0.306,0.274l-0.06,0.543l-0.543,0.06    c-0.156,0.017-0.274,0.149-0.274,0.306C11.322,1.276,11.44,1.408,11.596,1.425z"/><path d="M4.573,10.611c0.06,0.06,0.139,0.09,0.218,0.09c0.079,0,0.158-0.03,0.218-0.09l0.369-0.368    c0.058-0.058,0.09-0.136,0.09-0.218c0-0.081-0.032-0.16-0.09-0.218L5.008,9.438c-0.058-0.058-0.136-0.09-0.218-0.09    c-0.082,0-0.16,0.032-0.218,0.09L4.204,9.807c-0.058,0.058-0.09,0.136-0.09,0.218s0.032,0.16,0.09,0.218L4.573,10.611z"/><path d="M8.539,4.912c0.058,0.058,0.136,0.09,0.218,0.09c0.082,0,0.16-0.032,0.218-0.09l0.369-0.369    c0.058-0.058,0.09-0.136,0.09-0.218c0-0.082-0.032-0.16-0.09-0.218L8.974,3.74c-0.12-0.12-0.315-0.12-0.435,0L8.17,4.108    c-0.058,0.058-0.09,0.136-0.09,0.218s0.032,0.16,0.09,0.218L8.539,4.912z"/><path d="M28.509,9.438c-0.116-0.116-0.32-0.115-0.435,0l-0.369,0.369c-0.058,0.058-0.09,0.136-0.09,0.218    c0,0.082,0.032,0.16,0.09,0.218l0.369,0.368c0.06,0.06,0.139,0.09,0.218,0.09s0.158-0.03,0.218-0.09l0.369-0.368    c0.058-0.058,0.09-0.136,0.09-0.218s-0.032-0.16-0.09-0.218L28.509,9.438z"/><path d="M2.084,13.107c-0.116-0.116-0.32-0.115-0.435,0L1.28,13.476c-0.058,0.058-0.09,0.136-0.09,0.218    c0,0.082,0.032,0.16,0.09,0.218l0.369,0.368c0.06,0.06,0.139,0.09,0.218,0.09c0.079,0,0.158-0.03,0.218-0.09l0.369-0.368    c0.058-0.058,0.09-0.136,0.09-0.218s-0.032-0.16-0.09-0.218L2.084,13.107z"/><path d="M11.412,4.77c0.058,0.058,0.136,0.09,0.218,0.09c0.082,0,0.16-0.032,0.218-0.09l0.369-0.369c0.12-0.12,0.12-0.315,0-0.435    l-0.369-0.369c-0.116-0.116-0.32-0.115-0.435,0l-0.369,0.369c-0.12,0.12-0.12,0.315,0,0.435L11.412,4.77z"/><path d="M20.689,3.739c0.06,0.06,0.139,0.09,0.218,0.09c0.079,0,0.158-0.03,0.218-0.09l0.369-0.368    c0.058-0.058,0.09-0.136,0.09-0.218c0-0.081-0.032-0.16-0.09-0.218l-0.369-0.369c-0.058-0.058-0.136-0.09-0.218-0.09    c-0.082,0-0.16,0.032-0.218,0.09L20.32,2.935c-0.058,0.058-0.09,0.136-0.09,0.218s0.032,0.16,0.09,0.218L20.689,3.739z"/><path d="M18.32,9.839c0.223-0.039,0.373-0.251,0.334-0.475c-0.035-0.204-0.057-0.585,0.199-0.841    c0.421-0.421,1.331-0.222,1.988,0.435c0.336,0.336,0.568,0.756,0.635,1.152c0.034,0.203,0.054,0.581-0.2,0.835    c-0.255,0.255-0.636,0.235-0.841,0.199c-0.225-0.037-0.436,0.111-0.475,0.334c-0.039,0.223,0.111,0.436,0.334,0.475    c0.127,0.022,0.252,0.033,0.373,0.033c0.468,0,0.889-0.16,1.189-0.46c0.382-0.381,0.534-0.933,0.429-1.553    c-0.096-0.568-0.403-1.135-0.864-1.596c-1.004-1.004-2.388-1.195-3.149-0.435c-0.378,0.379-0.534,0.947-0.427,1.562    C17.884,9.728,18.096,9.877,18.32,9.839z"/><path d="M10.23,20.516c-0.224,0.038-0.373,0.251-0.335,0.475c0.022,0.126,0.036,0.36-0.112,0.509    c-0.228,0.228-0.808,0.155-1.278-0.314c-0.469-0.469-0.542-1.05-0.315-1.278c0.149-0.149,0.383-0.135,0.509-0.112    c0.224,0.039,0.436-0.111,0.475-0.334c0.039-0.224-0.111-0.436-0.335-0.475c-0.482-0.082-0.929,0.041-1.23,0.341    c-0.596,0.595-0.457,1.667,0.315,2.439c0.449,0.449,1,0.684,1.5,0.684c0.358,0,0.69-0.121,0.939-0.37    c0.3-0.3,0.424-0.748,0.341-1.23C10.666,20.627,10.455,20.477,10.23,20.516z"/><path d="M13.063,23.366c-0.224,0.039-0.373,0.251-0.335,0.475c0.01,0.057,0.025,0.198-0.051,0.273    c-0.126,0.125-0.492,0.053-0.774-0.229c-0.15-0.15-0.252-0.333-0.281-0.503c-0.009-0.057-0.024-0.196,0.052-0.271    c0.076-0.076,0.216-0.061,0.274-0.051c0.225,0.037,0.436-0.111,0.474-0.335c0.038-0.223-0.111-0.436-0.335-0.474    c-0.387-0.067-0.75,0.035-0.994,0.28c-0.243,0.243-0.346,0.604-0.28,0.989c0.057,0.339,0.239,0.675,0.51,0.947    c0.349,0.349,0.779,0.531,1.173,0.531c0.29,0,0.56-0.099,0.763-0.302c0.245-0.245,0.346-0.607,0.279-0.994    C13.499,23.477,13.286,23.328,13.063,23.366z"/><path d="M21.825,14.591c-0.021-0.121-0.035-0.346,0.107-0.487c0.219-0.219,0.778-0.147,1.231,0.306    c0.453,0.453,0.525,1.012,0.307,1.231c-0.142,0.142-0.366,0.127-0.488,0.107c-0.225-0.04-0.436,0.111-0.474,0.335    c-0.039,0.223,0.111,0.436,0.335,0.474c0.096,0.017,0.191,0.025,0.283,0.025c0.362,0,0.689-0.126,0.924-0.36    c0.294-0.294,0.416-0.731,0.337-1.201c-0.072-0.425-0.301-0.848-0.643-1.191c-0.757-0.757-1.808-0.891-2.392-0.306    c-0.295,0.295-0.417,0.735-0.335,1.208c0.039,0.223,0.251,0.372,0.475,0.334C21.714,15.027,21.864,14.815,21.825,14.591z"/><path d="M22.641,17.494c-0.41,0.077-0.76,0.37-0.96,0.807c-0.094,0.206-0.004,0.45,0.202,0.545    c0.205,0.093,0.45,0.004,0.545-0.202c0.051-0.112,0.167-0.305,0.363-0.342c0.304-0.059,0.725,0.319,0.842,0.949    c0.117,0.63-0.14,1.132-0.443,1.188c-0.196,0.038-0.374-0.101-0.462-0.188c-0.162-0.158-0.422-0.156-0.581,0.007    c-0.158,0.162-0.155,0.422,0.007,0.581c0.284,0.277,0.629,0.427,0.972,0.427c0.072,0,0.143-0.007,0.214-0.02    c0.813-0.152,1.296-1.095,1.1-2.147C24.244,18.049,23.452,17.342,22.641,17.494z"/><path d="M23.769,12.091c0.223-0.039,0.373-0.251,0.334-0.475c-0.013-0.074-0.004-0.136,0.022-0.163    c0.061-0.061,0.312-0.036,0.537,0.189s0.251,0.476,0.189,0.537c-0.026,0.026-0.089,0.036-0.163,0.022    c-0.225-0.037-0.436,0.111-0.475,0.334c-0.039,0.223,0.111,0.436,0.334,0.475c0.069,0.012,0.136,0.018,0.203,0.018    c0.265,0,0.506-0.093,0.681-0.268c0.423-0.423,0.34-1.17-0.189-1.698c-0.529-0.53-1.275-0.612-1.699-0.189    c-0.219,0.219-0.31,0.541-0.25,0.884C23.333,11.98,23.543,12.127,23.769,12.091z"/><path d="M15.975,14.203c-1.086,1.085-1.086,2.852,0,3.937c0,0,0.001,0.001,0.001,0.001c0.543,0.542,1.255,0.813,1.968,0.813    c0.713,0,1.426-0.271,1.969-0.814c0.526-0.526,0.816-1.225,0.816-1.969c0-0.744-0.29-1.443-0.816-1.969    C18.827,13.118,17.06,13.118,15.975,14.203z M18.44,17.56c-0.504,0.504-1.381,0.504-1.885,0c-0.001-0.001-0.002-0.002-0.003-0.003    c-0.25-0.251-0.387-0.585-0.387-0.939c0-0.356,0.139-0.69,0.39-0.942c0.504-0.503,1.381-0.504,1.885,0    c0.252,0.252,0.39,0.586,0.39,0.942C18.83,16.974,18.692,17.309,18.44,17.56z M19.534,17.323c0.077-0.224,0.118-0.462,0.118-0.705    c0-0.575-0.224-1.116-0.631-1.523c-0.407-0.407-0.947-0.631-1.523-0.631c-0.244,0-0.482,0.04-0.706,0.118    c0.767-0.555,1.849-0.488,2.54,0.202C20.023,15.475,20.09,16.556,19.534,17.323z"/><path d="M11.39,11.687c0.002,0.004,0.004,0.008,0.007,0.012c0.532,0.955,1.526,1.495,2.55,1.495c0.475,0,0.956-0.116,1.401-0.361    c1.406-0.775,1.92-2.551,1.145-3.957c-0.376-0.682-0.994-1.176-1.741-1.392c-0.747-0.217-1.534-0.128-2.216,0.247    c-1.405,0.775-1.919,2.548-1.147,3.953C11.389,11.685,11.389,11.686,11.39,11.687z M14.522,8.272    c0.537,0.155,0.981,0.51,1.25,0.999c0.528,0.958,0.224,2.153-0.669,2.749c0.56-0.69,0.679-1.679,0.225-2.503    c-0.29-0.526-0.767-0.908-1.344-1.075c-0.207-0.06-0.418-0.089-0.628-0.089c-0.087,0-0.175,0.005-0.261,0.015    C13.544,8.169,14.044,8.134,14.522,8.272z M11.988,10.205c0.106-0.366,0.348-0.669,0.682-0.853    c0.334-0.184,0.72-0.227,1.085-0.121c0.366,0.106,0.669,0.348,0.853,0.682c0.38,0.689,0.128,1.559-0.561,1.938    c-0.334,0.184-0.719,0.227-1.085,0.121c-0.365-0.105-0.667-0.346-0.851-0.678c-0.001-0.001-0.001-0.002-0.002-0.004    c-0.002-0.003-0.004-0.006-0.005-0.01C11.924,10.95,11.883,10.568,11.988,10.205z"/><path d="M17.157,4.036C17.157,4.036,17.157,4.036,17.157,4.036C17.158,4.036,17.158,4.037,17.157,4.036    c0.001,0.001,0.002,0,0.002,0.001c0.223,0.104,0.461,0.156,0.709,0.156c0.499,0,0.97-0.219,1.292-0.601    c0.257-0.305,0.399-0.692,0.399-1.09c0-0.086-0.006-0.171-0.019-0.255c-0.075-0.5-0.369-0.938-0.802-1.196    c-0.072-0.043-0.148-0.081-0.228-0.114c0,0-0.001,0-0.001,0c-0.678-0.279-1.502-0.067-1.962,0.511    c-0.238,0.298-0.369,0.672-0.369,1.054c0,0.164,0.024,0.325,0.069,0.478C16.383,3.44,16.711,3.83,17.157,4.036z M16.814,2.3    c0.004-0.021,0.011-0.041,0.016-0.061c0.011-0.045,0.024-0.089,0.041-0.131c0.004-0.009,0.008-0.018,0.012-0.028    c0.109,0.094,0.14,0.161,0.14,0.187c0,0.137-0.037,0.259-0.079,0.399c0,0-0.011,0.036-0.011,0.036    C16.916,2.759,16.897,2.826,16.88,2.9c-0.008-0.02-0.02-0.038-0.027-0.058c-0.008-0.023-0.015-0.045-0.021-0.068    c-0.023-0.088-0.039-0.178-0.039-0.271C16.793,2.433,16.801,2.366,16.814,2.3z M17.533,3.52c-0.016-0.047-0.034-0.097-0.046-0.139    c-0.053-0.178-0.02-0.315,0.036-0.502L17.228,2.79l0.306,0.053c0.049-0.164,0.105-0.349,0.105-0.577    c0-0.232-0.125-0.452-0.361-0.656c0.108-0.072,0.225-0.129,0.353-0.157C17.59,1.522,17.56,1.59,17.55,1.661    c-0.024,0.158,0.03,0.312,0.15,0.432c0.247,0.247,0.55,0.275,0.768,0.284c-0.007,0.013-0.013,0.025-0.02,0.036    c-0.103,0.189-0.275,0.504-0.074,0.867c0.022,0.039,0.057,0.074,0.087,0.111C18.189,3.57,17.842,3.62,17.533,3.52z M18.409,1.574    c0.091,0.053,0.172,0.118,0.242,0.192c0.002,0.002,0.004,0.003,0.005,0.005c-0.045-0.005-0.086-0.006-0.117-0.007    c-0.141-0.005-0.249-0.013-0.331-0.054c0.037-0.034,0.098-0.081,0.194-0.14C18.405,1.572,18.407,1.573,18.409,1.574z"/><path d="M10.065,26.151l-1.007-0.111l-0.111-1.006c-0.017-0.156-0.149-0.274-0.306-0.274c-0.157,0-0.289,0.118-0.306,0.274    l-0.111,1.006l-1.006,0.111c-0.156,0.017-0.274,0.149-0.274,0.306s0.118,0.289,0.274,0.306l1.006,0.111l0.111,1.006    c0.017,0.156,0.149,0.274,0.306,0.274c0.157,0,0.289-0.118,0.306-0.274l0.111-1.006l1.007-0.111    c0.156-0.017,0.274-0.149,0.274-0.306S10.221,26.168,10.065,26.151z"/><path d="M20.734,30.375l-0.722-0.08l-0.08-0.722c-0.017-0.156-0.149-0.274-0.306-0.274s-0.289,0.118-0.306,0.274l-0.08,0.722    l-0.723,0.08c-0.156,0.017-0.274,0.149-0.274,0.306s0.118,0.289,0.274,0.306l0.723,0.08l0.08,0.722    c0.017,0.156,0.149,0.274,0.306,0.274s0.289-0.118,0.306-0.274l0.08-0.722l0.722-0.08c0.156-0.017,0.274-0.149,0.274-0.306    S20.89,30.392,20.734,30.375z"/><path d="M27.614,22.875c-0.058-0.058-0.136-0.09-0.218-0.09c-0.082,0-0.16,0.032-0.218,0.09l-0.369,0.369    c-0.058,0.058-0.09,0.136-0.09,0.218s0.032,0.16,0.09,0.218l0.369,0.368c0.06,0.06,0.139,0.09,0.218,0.09    c0.079,0,0.158-0.03,0.218-0.09l0.369-0.368c0.058-0.058,0.09-0.136,0.09-0.218c0-0.081-0.032-0.16-0.09-0.218L27.614,22.875z"/><path d="M25.713,29.02c-0.115-0.115-0.32-0.115-0.435,0l-0.369,0.369c-0.058,0.058-0.09,0.136-0.09,0.218    c0,0.082,0.032,0.16,0.09,0.218l0.369,0.368c0.06,0.06,0.139,0.09,0.218,0.09c0.079,0,0.158-0.03,0.218-0.09l0.369-0.368    c0.058-0.058,0.09-0.136,0.09-0.218c0-0.081-0.032-0.16-0.09-0.218L25.713,29.02z"/><path d="M4.64,21.45c-0.116-0.116-0.32-0.116-0.435,0l-0.369,0.369c-0.058,0.058-0.09,0.136-0.09,0.218    c0,0.082,0.032,0.16,0.09,0.218l0.369,0.368c0.06,0.06,0.139,0.09,0.218,0.09s0.158-0.03,0.218-0.09l0.369-0.368    c0.058-0.058,0.09-0.136,0.09-0.218s-0.032-0.16-0.09-0.218L4.64,21.45z"/><path d="M30.72,21.45l-0.369-0.369c-0.116-0.116-0.32-0.115-0.435,0l-0.369,0.369c-0.12,0.12-0.12,0.315,0,0.435l0.369,0.369    c0.058,0.058,0.136,0.09,0.218,0.09c0.082,0,0.16-0.032,0.218-0.09l0.369-0.369C30.84,21.766,30.84,21.571,30.72,21.45z"/><path d="M22.272,27.224c-0.12-0.12-0.315-0.12-0.435,0l-0.369,0.368c-0.058,0.058-0.09,0.136-0.09,0.218    c0,0.081,0.032,0.16,0.09,0.218l0.369,0.369c0.058,0.058,0.136,0.09,0.218,0.09s0.16-0.032,0.218-0.09l0.369-0.369    c0.058-0.058,0.09-0.136,0.09-0.218c0-0.082-0.032-0.16-0.09-0.218L22.272,27.224z"/><path d="M12.025,28.323c-0.115-0.115-0.32-0.115-0.435,0l-0.369,0.369c-0.058,0.058-0.09,0.136-0.09,0.218    c0,0.082,0.032,0.16,0.09,0.218l0.369,0.368c0.06,0.06,0.139,0.09,0.218,0.09s0.158-0.03,0.218-0.09l0.369-0.368    c0.058-0.058,0.09-0.136,0.09-0.218c0-0.081-0.032-0.16-0.09-0.218L12.025,28.323z"/><path d="M16.357,4.755c-2.289,0-4.418,0.693-6.191,1.879c-0.107,0.017-0.207,0.075-0.274,0.172    C9.884,6.818,9.877,6.83,9.869,6.842c-2.828,2.027-4.676,5.339-4.676,9.076c0,6.156,5.008,11.163,11.163,11.163    c6.156,0,11.163-5.008,11.163-11.163S22.512,4.755,16.357,4.755z M26.699,15.918c0,2.166-0.671,4.178-1.813,5.841    c-1.519,0.845-3.951,1.745-5.755,1.745c-1.814,0-3.6-0.475-5.163-1.374c-1.182-0.68-2.207-1.572-3.044-2.652    c-1.332-1.719-2.079-3.777-2.16-5.952c-0.005-0.131-0.008-0.263-0.008-0.395c0-0.453,0.03-0.911,0.088-1.358    c0.082-0.625,0.221-1.245,0.414-1.842c0.289-0.89,0.7-1.733,1.217-2.513c1.671-1.16,3.697-1.842,5.881-1.842    C22.059,5.576,26.699,10.216,26.699,15.918z M6.015,15.918c0-2.701,1.042-5.162,2.743-7.006c-0.102,0.251-0.196,0.507-0.28,0.765    c-0.209,0.645-0.359,1.314-0.447,1.989c-0.063,0.483-0.095,0.975-0.095,1.464c0,0.143,0.003,0.284,0.008,0.426    c0.088,2.348,0.895,4.569,2.332,6.425c0.903,1.165,2.008,2.128,3.283,2.862c1.688,0.97,3.614,1.483,5.572,1.483    c1.384,0,3.049-0.464,4.496-1.06c-1.87,1.85-4.438,2.995-7.27,2.995C10.654,26.26,6.015,21.621,6.015,15.918z"/></g></g></svg>