<?xml version="1.0" ?><svg id="Layer_1" style="enable-background:new 0 0 512 512;" version="1.1" viewBox="0 0 512 512" xml:space="preserve" xmlns="http://www.w3.org/2000/svg" xmlns:xlink="http://www.w3.org/1999/xlink"><style type="text/css">
	.st0{fill:#B9D4DB;stroke:#414042;stroke-width:20;stroke-miterlimit:10;}
	.st1{fill:#AEDEEF;}
	.st2{fill:#E4F5FD;}
	.st3{fill:#FBEC7D;stroke:#414042;stroke-width:10;stroke-miterlimit:10;}
	.st4{fill:#414042;}
	.st5{fill:none;stroke:#414042;stroke-width:10;stroke-linecap:round;stroke-linejoin:round;stroke-miterlimit:10;}
	.st6{fill:#B9D4DB;stroke:#414042;stroke-width:13;stroke-miterlimit:10;}
	.st7{fill:none;stroke:#414042;stroke-width:20;stroke-linecap:round;stroke-linejoin:round;stroke-miterlimit:10;}
	.st8{fill:#BE1E2D;stroke:#414042;stroke-width:15.9261;stroke-miterlimit:10;}
	.st9{fill:#F9ED32;stroke:#414042;stroke-width:13;stroke-miterlimit:10;}
</style><circle class="st0" cx="287.4" cy="263.5" id="XMLID_173_" r="195.1"/><path class="st1" d="M462.6,262.3c0,99.1-52.8,170.5-147.9,184.6c-94.3,13.9-196.9-85.4-196.9-184.6  S195,72.8,290.3,72.8S462.6,163.2,462.6,262.3z" id="XMLID_172_"/><path class="st2" d="M462.6,260.4c0,97.5-53.7,167.7-150.5,181.6c-95.9,13.7-200.3-84-200.3-181.6  S190.4,73.8,287.3,72.8C401.1,71.7,462.6,162.9,462.6,260.4z" id="XMLID_171_"/><circle class="st3" cx="262.1" cy="358.5" id="XMLID_169_" r="22.6"/><circle class="st4" cx="157" cy="300.2" id="XMLID_164_" r="5"/><circle class="st4" cx="315.1" cy="202.2" id="XMLID_163_" r="5"/><circle class="st4" cx="198" cy="210.3" id="XMLID_162_" r="11.3"/><path class="st5" d="M157,358.5c0,11.6,7.5,21,16.7,21" id="XMLID_161_"/><circle class="st4" cx="346.6" cy="40.2" id="XMLID_159_" r="5"/><circle class="st4" cx="173.7" cy="57.7" id="XMLID_157_" r="9.1"/><circle class="st6" cx="290.3" cy="358.5" id="XMLID_165_" r="22.6"/><path class="st7" d="M144.3,478.8c-68.4-48.4-113-128.2-113-218.3c0-76.2,31.9-145,83.1-193.7" id="XMLID_166_"/><circle class="st8" cx="117.9" cy="57.7" id="XMLID_170_" r="25.8"/><circle class="st9" cx="440.1" cy="68.4" id="XMLID_22_" r="22.6"/></svg>